<svg width="156" height="24" viewBox="0 0 156 24" fill="none" xmlns="http://www.w3.org/2000/svg">
<path d="M0 4C0 1.79086 1.79086 0 4 0H62L69 12L62 24H4C1.79086 24 0 22.2091 0 20V4Z" fill="#5177BC" fill-opacity="0.1"/>
<path d="M2.21702 15.04H4.24502V8.068L2.56502 8.512L2.34902 7.84L4.62902 6.856H5.39702V15.04H7.30502V16H2.21702V15.04ZM8.83914 15.676C8.83914 15.16 9.19914 14.872 9.64314 14.872C10.0871 14.872 10.4471 15.16 10.4471 15.676C10.4471 16.192 10.0871 16.48 9.64314 16.48C9.19914 16.48 8.83914 16.192 8.83914 15.676ZM13.974 17.092C13.206 17.092 12.846 16.732 12.846 15.964V12.748H20.046V16.9C20.046 17.02 19.974 17.092 19.854 17.092H13.974ZM11.526 11.356V10.432H18.438C18.558 9.808 18.666 8.884 18.666 8.308V7.456H12.906V6.508H19.374C19.674 6.508 19.806 6.64 19.806 6.94V8.164C19.806 8.836 19.65 9.784 19.482 10.432H21.366V11.356H11.526ZM13.962 15.952C13.962 16.072 14.058 16.168 14.178 16.168H18.93V13.672H13.962V15.952ZM31.3246 12.34H30.2326V9.676H29.1406V12.34H28.0726V6.304H29.1406V8.74H30.2326V6.244H31.3246V12.34ZM31.0726 13.06C31.1926 13.06 31.2646 13.132 31.2646 13.252V17.212H30.1246V14.008H24.0766V13.06H31.0726ZM24.7726 11.656C23.2366 11.656 22.0966 10.6 22.0966 9.016C22.0966 7.432 23.2366 6.376 24.7726 6.376C26.3086 6.376 27.4486 7.432 27.4486 9.016C27.4486 10.6 26.3086 11.656 24.7726 11.656ZM24.7726 7.3C23.9086 7.3 23.1886 7.9 23.1886 9.016C23.1886 10.132 23.9086 10.732 24.7726 10.732C25.6366 10.732 26.3566 10.132 26.3566 9.016C26.3566 7.9 25.6366 7.3 24.7726 7.3ZM36.9992 11.032V7.6H34.0472V10.876C34.0472 11.068 34.1912 11.224 34.3832 11.212L36.9992 11.032ZM37.9232 6.676C38.0432 6.676 38.1152 6.748 38.1152 6.868V11.8L34.1792 12.136C33.3752 12.208 32.9312 11.692 32.9312 10.888V6.676H37.9232ZM35.3792 15.796C35.3792 15.916 35.4752 16.012 35.5952 16.012H41.4632V16.96H35.3672C34.5992 16.96 34.2392 16.6 34.2392 15.832V13.312H35.3792V15.796ZM42.7832 10.108H41.1632V14.104H40.0232V6.244H41.1632V9.172H42.7832V10.108ZM52.1538 15.196H46.3218V16.084C46.3218 16.204 46.4178 16.3 46.5378 16.3H52.3938V17.212H46.3098C45.5418 17.212 45.1818 16.852 45.1818 16.084V14.284H51.0138V13.24H45.1818V12.316H51.9618C52.0818 12.316 52.1538 12.388 52.1538 12.508V15.196ZM49.1898 11.572C48.4458 11.284 46.9938 10.228 46.5258 9.46C46.0578 10.276 44.7258 11.308 43.7898 11.74L43.1058 11.02C44.5218 10.276 45.9378 9.268 45.9378 7.732V6.316H47.0778V7.72C47.0778 9.268 48.6378 10.264 49.7418 10.828L49.1898 11.572ZM48.8418 8.944V8.008H51.0138V6.244H52.1538V11.656H51.0138V8.944H48.8418ZM59.5684 17.452C57.6964 17.452 56.3764 16.468 56.3764 14.932C56.3764 13.396 57.6964 12.412 59.5684 12.412C61.4404 12.412 62.7604 13.396 62.7604 14.932C62.7604 16.468 61.4404 17.452 59.5684 17.452ZM59.8324 11.872C59.0884 11.584 57.6364 10.528 57.1684 9.76C56.7004 10.576 55.3684 11.728 54.4324 12.16L53.7484 11.44C55.1644 10.696 56.5804 9.568 56.5804 8.032V7.504H54.3364V6.556H59.9164V7.504H57.7204V8.02C57.7204 9.568 59.2804 10.564 60.3844 11.128L59.8324 11.872ZM59.5684 13.336C58.2844 13.336 57.4924 13.936 57.4924 14.932C57.4924 15.928 58.2844 16.528 59.5684 16.528C60.8524 16.528 61.6444 15.928 61.6444 14.932C61.6444 13.936 60.8524 13.336 59.5684 13.336ZM59.6404 9.46V8.524H61.6924V6.244H62.8324V12.4H61.6924V9.46H59.6404Z" fill="#5177BC"/>
<path d="M64 0H129C131.209 0 133 1.79086 133 4V20C133 22.2091 131.209 24 129 24H64L71 12L64 0Z" fill="#6FBF37" fill-opacity="0.1"/>
<path d="M81.1348 6.676C81.1348 6.556 81.2068 6.484 81.3268 6.484H88.1668V7.408H82.2748V8.512H88.1668V9.412H82.2748V10.36C82.2748 10.48 82.3708 10.576 82.4908 10.576H88.2988V11.5H82.2628C81.4948 11.5 81.1348 11.14 81.1348 10.372V6.676ZM84.0748 16.972V13.528H79.7428V12.58H89.5828V13.528H85.2148V16.972H84.0748ZM96.1694 14.104C95.4134 13.72 93.9134 12.268 93.4334 11.392C92.9894 12.304 91.5854 13.708 90.6494 14.272L89.9654 13.552C91.3814 12.616 92.8574 11.188 92.8574 9.544V7.804H90.5774V6.856H96.2654V7.804H93.9974V9.544C93.9974 11.14 95.6414 12.676 96.7214 13.36L96.1694 14.104ZM100.441 10.828H98.8214V16.972H97.6814V6.244H98.8214V9.892H100.441V10.828ZM109.812 15.16H103.98V16.084C103.98 16.204 104.076 16.3 104.196 16.3H110.052V17.212H103.968C103.2 17.212 102.84 16.852 102.84 16.084V14.248H108.672V13.168H102.84V12.244H109.62C109.74 12.244 109.812 12.316 109.812 12.436V15.16ZM106.5 10.552V9.664H108.672V8.356H106.74V7.468H108.672V6.244H109.812V11.644H108.672V10.552H106.5ZM105.912 6.436C106.212 6.436 106.344 6.568 106.344 6.868V7.468C106.344 9.616 103.764 11.044 101.46 11.728L100.98 10.936C103.356 10.18 105.204 8.932 105.204 7.672V7.384H101.484V6.436H105.912ZM121.559 10.948H120.059V16.972H118.919V14.08C118.259 14.284 116.903 14.524 114.659 14.524H111.311V13.576H113.315V10.396H114.455V13.576H114.515C116.603 13.576 118.091 13.432 118.919 13.228V6.244H120.059V10.012H121.559V10.948ZM117.359 9.208C117.359 9.928 117.143 11.56 116.939 12.172L115.919 12.052C116.063 11.488 116.219 9.964 116.219 9.352V7.852H111.959V6.904H116.927C117.227 6.904 117.359 7.036 117.359 7.336V9.208Z" fill="#42701F"/>
</svg>
