<svg width="261" height="24" viewBox="0 0 261 24" fill="none" xmlns="http://www.w3.org/2000/svg">
<path d="M0 4C0 1.79086 1.79086 0 4 0H62L69 12L62 24H4C1.79086 24 0 22.2091 0 20V4Z" fill="#5177BC" fill-opacity="0.1"/>
<path d="M8.49631 15.04H10.5243V8.068L8.84431 8.512L8.62831 7.84L10.9083 6.856H11.6763V15.04H13.5843V16H8.49631V15.04ZM15.1184 15.676C15.1184 15.16 15.4784 14.872 15.9224 14.872C16.3664 14.872 16.7264 15.16 16.7264 15.676C16.7264 16.192 16.3664 16.48 15.9224 16.48C15.4784 16.48 15.1184 16.192 15.1184 15.676ZM19.1973 6.676C19.1973 6.556 19.2693 6.484 19.3893 6.484H26.2293V7.408H20.3373V8.512H26.2293V9.412H20.3373V10.36C20.3373 10.48 20.4333 10.576 20.5533 10.576H26.3613V11.5H20.3253C19.5573 11.5 19.1973 11.14 19.1973 10.372V6.676ZM22.1373 16.972V13.528H17.8053V12.58H27.6453V13.528H23.2773V16.972H22.1373ZM34.2319 14.104C33.4759 13.72 31.9759 12.268 31.4959 11.392C31.0519 12.304 29.6479 13.708 28.7119 14.272L28.0279 13.552C29.4439 12.616 30.9199 11.188 30.9199 9.544V7.804H28.6399V6.856H34.3279V7.804H32.0599V9.544C32.0599 11.14 33.7039 12.676 34.7839 13.36L34.2319 14.104ZM38.5039 10.828H36.8839V16.972H35.7439V6.244H36.8839V9.892H38.5039V10.828ZM47.7545 16.972H46.6145V6.244H47.7545V16.972ZM44.0945 6.868C44.3945 6.868 44.5265 7 44.5265 7.3V8.26C44.5265 11.284 42.0425 13.192 39.7625 14.26L39.2825 13.468C41.6465 12.34 43.3865 10.744 43.3865 8.464V7.816H39.5465V6.868H44.0945ZM54.9771 7.516C55.0611 8.752 57.2091 9.688 58.5051 10.072L57.9771 10.816C56.5251 10.468 54.9171 9.448 54.4011 8.728C53.8851 9.448 52.2771 10.468 50.8251 10.816L50.2971 10.072C51.5931 9.688 53.7411 8.752 53.8131 7.516H50.8131V6.568H57.9891V7.516H54.9771ZM54.0771 14.812V12.568H49.4811V11.62H59.3211V12.568H55.2171V14.812H54.0771ZM51.9411 13.684V15.796C51.9411 15.916 52.0371 16.012 52.1571 16.012H58.2411V16.96H51.9291C51.1611 16.96 50.8011 16.6 50.8011 15.832V13.684H51.9411Z" fill="#5177BC"/>
<path d="M64 0H126.042L133 12L126.042 24H64L70.958 12L64 0Z" fill="#5177BC" fill-opacity="0.1"/>
<path d="M79.6083 15.052V16H74.1363V15.052C74.1363 14.728 74.2683 14.428 74.4603 14.224L75.9723 12.556C77.2803 11.056 78.2883 9.976 78.2883 8.992C78.2883 8.092 77.6763 7.624 76.5963 7.624C75.9123 7.624 75.1083 7.924 74.4723 8.284L74.1243 7.48C74.9403 6.964 75.8163 6.676 76.6443 6.676C78.3243 6.676 79.4283 7.468 79.4283 8.968C79.4283 10.396 78.3243 11.512 76.9083 13.132L75.3483 14.848V15.052H79.6083ZM81.1184 15.676C81.1184 15.16 81.4784 14.872 81.9224 14.872C82.3664 14.872 82.7264 15.16 82.7264 15.676C82.7264 16.192 82.3664 16.48 81.9224 16.48C81.4784 16.48 81.1184 16.192 81.1184 15.676ZM88.7253 17.452C86.8533 17.452 85.4133 16.66 85.4133 15.088C85.4133 13.516 86.8533 12.724 88.7253 12.724C90.5973 12.724 92.0373 13.516 92.0373 15.088C92.0373 16.66 90.5973 17.452 88.7253 17.452ZM88.7253 8.548C88.2093 9.232 86.6013 10.012 85.1493 10.396L84.6213 9.652C85.8933 9.268 87.9813 8.56 88.1373 7.396H85.1373V6.448H92.3133V7.396H89.3133C89.4573 8.56 91.5573 9.268 92.8293 9.652L92.3013 10.396C90.8493 10.012 89.2413 9.232 88.7253 8.548ZM93.6453 12.1H83.8053V11.176H88.1613V9.676H89.3013V11.176H93.6453V12.1ZM88.7253 13.648C87.4053 13.648 86.5293 14.128 86.5293 15.088C86.5293 16.048 87.4053 16.528 88.7253 16.528C90.0453 16.528 90.9213 16.048 90.9213 15.088C90.9213 14.128 90.0453 13.648 88.7253 13.648ZM96.9439 10.324C96.1759 10.324 95.8159 9.964 95.8159 9.196V6.448H102.752V10.132C102.752 10.252 102.68 10.324 102.56 10.324H99.8599V11.56H104.204V12.484H94.3639V11.56H98.7199V10.324H96.9439ZM102.692 13.576C102.812 13.576 102.884 13.648 102.884 13.768V17.212H101.744V14.524H95.6239V13.576H102.692ZM96.9319 9.184C96.9319 9.304 97.0279 9.4 97.1479 9.4H101.636V7.372H96.9319V9.184ZM110.911 12.472C110.167 12.184 108.715 11.128 108.247 10.36C107.779 11.176 106.447 12.208 105.511 12.64L104.827 11.92C106.243 11.176 107.659 10.168 107.659 8.632V6.556H108.799V8.62C108.799 10.168 110.359 11.164 111.463 11.728L110.911 12.472ZM110.562 9.364V8.428H112.735V6.244H113.875V14.044H112.735V9.364H110.562ZM108.09 15.796C108.09 15.916 108.187 16.012 108.307 16.012H114.175V16.96H108.079C107.311 16.96 106.951 16.6 106.951 15.832V13.432H108.09V15.796ZM117.137 11.08C117.137 11.2 117.233 11.296 117.353 11.296C117.917 11.296 118.217 11.296 118.781 11.272C119.549 11.236 120.137 11.176 120.773 11.056L120.833 11.86C120.245 12.016 119.513 12.136 118.745 12.184C118.109 12.22 117.761 12.22 117.125 12.22C116.357 12.22 115.997 11.86 115.997 11.092V6.748C115.997 6.628 116.069 6.556 116.189 6.556H120.209V7.48H117.137V8.872H120.137V9.772H117.137V11.08ZM124.721 12.688H123.629V9.796H122.501V12.688H121.433V6.304H122.501V8.86H123.629V6.244H124.721V12.688ZM124.469 13.396C124.589 13.396 124.661 13.468 124.661 13.588V17.212H123.521V14.344H117.461V13.396H124.469Z" fill="#5177BC"/>
<path d="M128 0H196C198.209 0 200 1.79086 200 4V20C200 22.2091 198.209 24 196 24H128L135.579 12L128 0Z" fill="#6FBF37" fill-opacity="0.1"/>
<path d="M146.722 6.676C146.722 6.556 146.794 6.484 146.914 6.484H153.754V7.408H147.862V8.512H153.754V9.412H147.862V10.36C147.862 10.48 147.958 10.576 148.078 10.576H153.886V11.5H147.85C147.082 11.5 146.722 11.14 146.722 10.372V6.676ZM149.662 16.972V13.528H145.33V12.58H155.17V13.528H150.802V16.972H149.662ZM161.757 14.104C161.001 13.72 159.501 12.268 159.021 11.392C158.577 12.304 157.173 13.708 156.237 14.272L155.553 13.552C156.969 12.616 158.445 11.188 158.445 9.544V7.804H156.165V6.856H161.853V7.804H159.585V9.544C159.585 11.14 161.229 12.676 162.309 13.36L161.757 14.104ZM166.029 10.828H164.409V16.972H163.269V6.244H164.409V9.892H166.029V10.828ZM175.399 15.16H169.567V16.084C169.567 16.204 169.663 16.3 169.783 16.3H175.639V17.212H169.555C168.787 17.212 168.427 16.852 168.427 16.084V14.248H174.259V13.168H168.427V12.244H175.207C175.327 12.244 175.399 12.316 175.399 12.436V15.16ZM172.087 10.552V9.664H174.259V8.356H172.327V7.468H174.259V6.244H175.399V11.644H174.259V10.552H172.087ZM171.499 6.436C171.799 6.436 171.931 6.568 171.931 6.868V7.468C171.931 9.616 169.351 11.044 167.047 11.728L166.567 10.936C168.943 10.18 170.791 8.932 170.791 7.672V7.384H167.071V6.436H171.499ZM187.146 10.948H185.646V16.972H184.506V14.08C183.846 14.284 182.49 14.524 180.246 14.524H176.898V13.576H178.902V10.396H180.042V13.576H180.102C182.19 13.576 183.678 13.432 184.506 13.228V6.244H185.646V10.012H187.146V10.948ZM182.946 9.208C182.946 9.928 182.73 11.56 182.526 12.172L181.506 12.052C181.65 11.488 181.806 9.964 181.806 9.352V7.852H177.546V6.904H182.514C182.814 6.904 182.946 7.036 182.946 7.336V9.208Z" fill="#42701F"/>
</svg>
