<svg width="328" height="24" viewBox="0 0 328 24" fill="none" xmlns="http://www.w3.org/2000/svg">
<path d="M0 4C0 1.79086 1.79086 0 4 0H62L69 12L62 24H4C1.79086 24 0 22.2091 0 20V4Z" fill="#5177BC" fill-opacity="0.1"/>
<path d="M8.49631 15.04H10.5243V8.068L8.84431 8.512L8.62831 7.84L10.9083 6.856H11.6763V15.04H13.5843V16H8.49631V15.04ZM15.1184 15.676C15.1184 15.16 15.4784 14.872 15.9224 14.872C16.3664 14.872 16.7264 15.16 16.7264 15.676C16.7264 16.192 16.3664 16.48 15.9224 16.48C15.4784 16.48 15.1184 16.192 15.1184 15.676ZM27.0453 12.412H25.9533V9.676H24.8613V12.412H23.7933V6.304H24.8613V8.74H25.9533V6.244H27.0453V12.412ZM23.4573 11.596C23.0973 11.668 22.4373 11.764 21.4533 11.824C20.2413 11.896 18.6333 11.884 17.6133 11.884V10.96H18.6093V8.224H19.6533V10.96C20.1093 10.96 20.5893 10.948 21.0333 10.936C21.1293 10.588 21.2253 10.132 21.2253 9.64V8.224H22.2693V9.556C22.2693 10.06 22.1733 10.528 22.0533 10.888C22.5573 10.864 22.9653 10.84 23.3973 10.792L23.4573 11.596ZM26.7933 13.132C26.9133 13.132 26.9853 13.204 26.9853 13.324V17.212H25.8453V14.08H19.7973V13.132H26.7933ZM17.7573 7.54V6.616H23.1573V7.54H17.7573ZM29.0599 6.988C29.0599 6.868 29.1319 6.796 29.2519 6.796H34.1119V7.72H30.1999V9.856H33.5119V10.756H30.1999V12.844C30.1999 12.964 30.2959 13.06 30.4159 13.06C31.0999 13.06 31.9159 13.06 32.5999 13.036C33.5839 13 34.5319 12.904 35.2759 12.76L35.3359 13.564C34.7119 13.732 33.6439 13.888 32.5639 13.948C31.8079 13.984 30.9439 13.984 30.1879 13.984C29.4199 13.984 29.0599 13.624 29.0599 12.856V6.988ZM34.3639 10.684V9.748H36.2959V6.244H37.4359V16.972H36.2959V10.684H34.3639ZM44.9105 12.472C44.1665 12.184 42.7145 11.128 42.2465 10.36C41.7785 11.176 40.4465 12.208 39.5105 12.64L38.8265 11.92C40.2425 11.176 41.6585 10.168 41.6585 8.632V6.556H42.7985V8.62C42.7985 10.168 44.3585 11.164 45.4625 11.728L44.9105 12.472ZM44.5625 9.364V8.428H46.7345V6.244H47.8745V14.044H46.7345V9.364H44.5625ZM42.0905 15.796C42.0905 15.916 42.1865 16.012 42.3065 16.012H48.1745V16.96H42.0785C41.3105 16.96 40.9505 16.6 40.9505 15.832V13.432H42.0905V15.796ZM51.1371 11.08C51.1371 11.2 51.2331 11.296 51.3531 11.296C51.9171 11.296 52.2171 11.296 52.7811 11.272C53.5491 11.236 54.1371 11.176 54.7731 11.056L54.8331 11.86C54.2451 12.016 53.5131 12.136 52.7451 12.184C52.1091 12.22 51.7611 12.22 51.1251 12.22C50.3571 12.22 49.9971 11.86 49.9971 11.092V6.748C49.9971 6.628 50.0691 6.556 50.1891 6.556H54.2091V7.48H51.1371V8.872H54.1371V9.772H51.1371V11.08ZM58.7211 12.688H57.6291V9.796H56.5011V12.688H55.4331V6.304H56.5011V8.86H57.6291V6.244H58.7211V12.688ZM58.4691 13.396C58.5891 13.396 58.6611 13.468 58.6611 13.588V17.212H57.5211V14.344H51.4611V13.396H58.4691Z" fill="#5177BC"/>
<path d="M64 0H126.042L133 12L126.042 24H64L70.958 12L64 0Z" fill="#5177BC" fill-opacity="0.1"/>
<path d="M79.6083 15.052V16H74.1363V15.052C74.1363 14.728 74.2683 14.428 74.4603 14.224L75.9723 12.556C77.2803 11.056 78.2883 9.976 78.2883 8.992C78.2883 8.092 77.6763 7.624 76.5963 7.624C75.9123 7.624 75.1083 7.924 74.4723 8.284L74.1243 7.48C74.9403 6.964 75.8163 6.676 76.6443 6.676C78.3243 6.676 79.4283 7.468 79.4283 8.968C79.4283 10.396 78.3243 11.512 76.9083 13.132L75.3483 14.848V15.052H79.6083ZM81.1184 15.676C81.1184 15.16 81.4784 14.872 81.9224 14.872C82.3664 14.872 82.7264 15.16 82.7264 15.676C82.7264 16.192 82.3664 16.48 81.9224 16.48C81.4784 16.48 81.1184 16.192 81.1184 15.676ZM93.0453 12.412H91.9533V9.676H90.8613V12.412H89.7933V6.304H90.8613V8.74H91.9533V6.244H93.0453V12.412ZM89.4573 11.596C89.0973 11.668 88.4373 11.764 87.4533 11.824C86.2413 11.896 84.6333 11.884 83.6133 11.884V10.96H84.6093V8.224H85.6533V10.96C86.1093 10.96 86.5893 10.948 87.0333 10.936C87.1293 10.588 87.2253 10.132 87.2253 9.64V8.224H88.2693V9.556C88.2693 10.06 88.1733 10.528 88.0533 10.888C88.5573 10.864 88.9653 10.84 89.3973 10.792L89.4573 11.596ZM92.7933 13.132C92.9133 13.132 92.9853 13.204 92.9853 13.324V17.212H91.8453V14.08H85.7973V13.132H92.7933ZM83.7573 7.54V6.616H89.1573V7.54H83.7573ZM95.0599 6.988C95.0599 6.868 95.1319 6.796 95.2519 6.796H100.112V7.72H96.1999V9.856H99.5119V10.756H96.1999V12.844C96.1999 12.964 96.2959 13.06 96.4159 13.06C97.0999 13.06 97.9159 13.06 98.5999 13.036C99.5839 13 100.532 12.904 101.276 12.76L101.336 13.564C100.712 13.732 99.6439 13.888 98.5639 13.948C97.8079 13.984 96.9439 13.984 96.1879 13.984C95.4199 13.984 95.0599 13.624 95.0599 12.856V6.988ZM100.364 10.684V9.748H102.296V6.244H103.436V16.972H102.296V10.684H100.364ZM106.195 7.732V6.784H113.491V7.732H110.419V8.368C110.419 9.688 112.711 11.044 114.031 11.548L113.443 12.292C111.991 11.776 110.299 10.528 109.843 9.892C109.387 10.528 107.695 11.776 106.243 12.292L105.655 11.548C106.975 11.044 109.267 9.688 109.267 8.368V7.732H106.195ZM114.763 15.292H104.923V14.344H109.279V12.196H110.419V14.344H114.763V15.292ZM121.289 17.452C119.417 17.452 118.097 16.468 118.097 14.932C118.097 13.396 119.417 12.412 121.289 12.412C123.161 12.412 124.481 13.396 124.481 14.932C124.481 16.468 123.161 17.452 121.289 17.452ZM121.553 11.872C120.809 11.584 119.357 10.528 118.889 9.76C118.421 10.576 117.089 11.728 116.153 12.16L115.469 11.44C116.885 10.696 118.301 9.568 118.301 8.032V7.504H116.057V6.556H121.637V7.504H119.441V8.02C119.441 9.568 121.001 10.564 122.105 11.128L121.553 11.872ZM121.289 13.336C120.005 13.336 119.213 13.936 119.213 14.932C119.213 15.928 120.005 16.528 121.289 16.528C122.573 16.528 123.365 15.928 123.365 14.932C123.365 13.936 122.573 13.336 121.289 13.336ZM121.361 9.46V8.524H123.413V6.244H124.553V12.4H123.413V9.46H121.361Z" fill="#5177BC"/>
<path d="M128 0H190.042L197 12L190.042 24H128L134.958 12L128 0Z" fill="#5177BC" fill-opacity="0.1"/>
<path d="M143.02 7.672L140.692 10.288C142.444 10.264 143.656 11.368 143.656 13.204C143.656 14.932 142.348 16.18 140.548 16.18C139.42 16.18 138.592 15.928 137.86 15.628L138.004 14.8C138.664 15.016 139.576 15.232 140.5 15.232C141.808 15.232 142.516 14.32 142.516 13.18C142.516 11.932 141.652 11.176 140.584 11.176C140.116 11.176 139.768 11.248 139.396 11.38L138.892 10.96L141.592 7.816H138.412V6.856H143.02V7.672ZM145.118 15.676C145.118 15.16 145.478 14.872 145.922 14.872C146.366 14.872 146.726 15.16 146.726 15.676C146.726 16.192 146.366 16.48 145.922 16.48C145.478 16.48 145.118 16.192 145.118 15.676ZM149.197 6.676C149.197 6.556 149.269 6.484 149.389 6.484H156.229V7.408H150.337V8.512H156.229V9.412H150.337V10.36C150.337 10.48 150.433 10.576 150.553 10.576H156.361V11.5H150.325C149.557 11.5 149.197 11.14 149.197 10.372V6.676ZM152.137 16.972V13.528H147.805V12.58H157.645V13.528H153.277V16.972H152.137ZM164.232 14.104C163.476 13.72 161.976 12.268 161.496 11.392C161.052 12.304 159.648 13.708 158.712 14.272L158.028 13.552C159.444 12.616 160.92 11.188 160.92 9.544V7.804H158.64V6.856H164.328V7.804H162.06V9.544C162.06 11.14 163.704 12.676 164.784 13.36L164.232 14.104ZM168.504 10.828H166.884V16.972H165.744V6.244H166.884V9.892H168.504V10.828ZM177.755 16.972H176.615V6.244H177.755V16.972ZM174.095 6.868C174.395 6.868 174.527 7 174.527 7.3V8.26C174.527 11.284 172.043 13.192 169.763 14.26L169.283 13.468C171.646 12.34 173.387 10.744 173.387 8.464V7.816H169.547V6.868H174.095ZM184.977 7.516C185.061 8.752 187.209 9.688 188.505 10.072L187.977 10.816C186.525 10.468 184.917 9.448 184.401 8.728C183.885 9.448 182.277 10.468 180.825 10.816L180.297 10.072C181.593 9.688 183.741 8.752 183.813 7.516H180.813V6.568H187.989V7.516H184.977ZM184.077 14.812V12.568H179.481V11.62H189.321V12.568H185.217V14.812H184.077ZM181.941 13.684V15.796C181.941 15.916 182.037 16.012 182.157 16.012H188.241V16.96H181.929C181.161 16.96 180.801 16.6 180.801 15.832V13.684H181.941Z" fill="#5177BC"/>
<path d="M192 0H254.042L261 12L254.042 24H192L198.958 12L192 0Z" fill="#5177BC" fill-opacity="0.1"/>
<path d="M205.616 12.856V8.632L202.844 12.856H205.616ZM201.596 13.168C201.596 12.988 201.656 12.844 201.764 12.688L205.676 6.856H206.756V12.856H208.064V13.804H206.756V16H205.616V13.804H201.596V13.168ZM209.118 15.676C209.118 15.16 209.478 14.872 209.922 14.872C210.366 14.872 210.726 15.16 210.726 15.676C210.726 16.192 210.366 16.48 209.922 16.48C209.478 16.48 209.118 16.192 209.118 15.676ZM216.725 17.452C214.853 17.452 213.413 16.66 213.413 15.088C213.413 13.516 214.853 12.724 216.725 12.724C218.597 12.724 220.037 13.516 220.037 15.088C220.037 16.66 218.597 17.452 216.725 17.452ZM216.725 8.548C216.209 9.232 214.601 10.012 213.149 10.396L212.621 9.652C213.893 9.268 215.981 8.56 216.137 7.396H213.137V6.448H220.313V7.396H217.313C217.457 8.56 219.557 9.268 220.829 9.652L220.301 10.396C218.849 10.012 217.241 9.232 216.725 8.548ZM221.645 12.1H211.805V11.176H216.161V9.676H217.301V11.176H221.645V12.1ZM216.725 13.648C215.405 13.648 214.529 14.128 214.529 15.088C214.529 16.048 215.405 16.528 216.725 16.528C218.045 16.528 218.921 16.048 218.921 15.088C218.921 14.128 218.045 13.648 216.725 13.648ZM224.944 10.324C224.176 10.324 223.816 9.964 223.816 9.196V6.448H230.752V10.132C230.752 10.252 230.68 10.324 230.56 10.324H227.86V11.56H232.204V12.484H222.364V11.56H226.72V10.324H224.944ZM230.692 13.576C230.812 13.576 230.884 13.648 230.884 13.768V17.212H229.744V14.524H223.624V13.576H230.692ZM224.932 9.184C224.932 9.304 225.028 9.4 225.148 9.4H229.636V7.372H224.932V9.184ZM238.911 12.472C238.167 12.184 236.715 11.128 236.247 10.36C235.779 11.176 234.447 12.208 233.511 12.64L232.827 11.92C234.243 11.176 235.659 10.168 235.659 8.632V6.556H236.799V8.62C236.799 10.168 238.359 11.164 239.463 11.728L238.911 12.472ZM238.562 9.364V8.428H240.735V6.244H241.875V14.044H240.735V9.364H238.562ZM236.09 15.796C236.09 15.916 236.187 16.012 236.307 16.012H242.175V16.96H236.079C235.311 16.96 234.951 16.6 234.951 15.832V13.432H236.09V15.796ZM245.137 11.08C245.137 11.2 245.233 11.296 245.353 11.296C245.917 11.296 246.217 11.296 246.781 11.272C247.549 11.236 248.137 11.176 248.773 11.056L248.833 11.86C248.245 12.016 247.513 12.136 246.745 12.184C246.109 12.22 245.761 12.22 245.125 12.22C244.357 12.22 243.997 11.86 243.997 11.092V6.748C243.997 6.628 244.069 6.556 244.189 6.556H248.209V7.48H245.137V8.872H248.137V9.772H245.137V11.08ZM252.721 12.688H251.629V9.796H250.501V12.688H249.433V6.304H250.501V8.86H251.629V6.244H252.721V12.688ZM252.469 13.396C252.589 13.396 252.661 13.468 252.661 13.588V17.212H251.521V14.344H245.461V13.396H252.469Z" fill="#5177BC"/>
<path d="M256 0H324C326.209 0 328 1.79086 328 4V20C328 22.2091 326.209 24 324 24H256L263.579 12L256 0Z" fill="#6FBF37" fill-opacity="0.1"/>
<path d="M274.722 6.676C274.722 6.556 274.794 6.484 274.914 6.484H281.754V7.408H275.862V8.512H281.754V9.412H275.862V10.36C275.862 10.48 275.958 10.576 276.078 10.576H281.886V11.5H275.85C275.082 11.5 274.722 11.14 274.722 10.372V6.676ZM277.662 16.972V13.528H273.33V12.58H283.17V13.528H278.802V16.972H277.662ZM289.757 14.104C289.001 13.72 287.501 12.268 287.021 11.392C286.577 12.304 285.173 13.708 284.237 14.272L283.553 13.552C284.969 12.616 286.445 11.188 286.445 9.544V7.804H284.165V6.856H289.853V7.804H287.585V9.544C287.585 11.14 289.229 12.676 290.309 13.36L289.757 14.104ZM294.029 10.828H292.409V16.972H291.269V6.244H292.409V9.892H294.029V10.828ZM303.399 15.16H297.567V16.084C297.567 16.204 297.663 16.3 297.783 16.3H303.639V17.212H297.555C296.787 17.212 296.427 16.852 296.427 16.084V14.248H302.259V13.168H296.427V12.244H303.207C303.327 12.244 303.399 12.316 303.399 12.436V15.16ZM300.087 10.552V9.664H302.259V8.356H300.327V7.468H302.259V6.244H303.399V11.644H302.259V10.552H300.087ZM299.499 6.436C299.799 6.436 299.931 6.568 299.931 6.868V7.468C299.931 9.616 297.351 11.044 295.047 11.728L294.567 10.936C296.943 10.18 298.791 8.932 298.791 7.672V7.384H295.071V6.436H299.499ZM315.146 10.948H313.646V16.972H312.506V14.08C311.846 14.284 310.49 14.524 308.246 14.524H304.898V13.576H306.902V10.396H308.042V13.576H308.102C310.19 13.576 311.678 13.432 312.506 13.228V6.244H313.646V10.012H315.146V10.948ZM310.946 9.208C310.946 9.928 310.73 11.56 310.526 12.172L309.506 12.052C309.65 11.488 309.806 9.964 309.806 9.352V7.852H305.546V6.904H310.514C310.814 6.904 310.946 7.036 310.946 7.336V9.208Z" fill="#42701F"/>
</svg>
