<svg width="261" height="24" viewBox="0 0 261 24" fill="none" xmlns="http://www.w3.org/2000/svg">
<path d="M0 4C0 1.79086 1.79086 0 4 0H62L69 12L62 24H4C1.79086 24 0 22.2091 0 20V4Z" fill="#5177BC" fill-opacity="0.1"/>
<path d="M2.21702 15.04H4.24502V8.068L2.56502 8.512L2.34902 7.84L4.62902 6.856H5.39702V15.04H7.30502V16H2.21702V15.04ZM8.83914 15.676C8.83914 15.16 9.19914 14.872 9.64314 14.872C10.0871 14.872 10.4471 15.16 10.4471 15.676C10.4471 16.192 10.0871 16.48 9.64314 16.48C9.19914 16.48 8.83914 16.192 8.83914 15.676ZM12.918 6.676C12.918 6.556 12.99 6.484 13.11 6.484H19.95V7.408H14.058V8.512H19.95V9.412H14.058V10.36C14.058 10.48 14.154 10.576 14.274 10.576H20.082V11.5H14.046C13.278 11.5 12.918 11.14 12.918 10.372V6.676ZM15.858 16.972V13.528H11.526V12.58H21.366V13.528H16.998V16.972H15.858ZM27.9526 14.104C27.1966 13.72 25.6966 12.268 25.2166 11.392C24.7726 12.304 23.3686 13.708 22.4326 14.272L21.7486 13.552C23.1646 12.616 24.6406 11.188 24.6406 9.544V7.804H22.3606V6.856H28.0486V7.804H25.7806V9.544C25.7806 11.14 27.4246 12.676 28.5046 13.36L27.9526 14.104ZM32.2246 10.828H30.6046V16.972H29.4646V6.244H30.6046V9.892H32.2246V10.828ZM38.1392 6.664V8.368C38.1392 9.568 40.4312 11.044 41.7512 11.548L41.1632 12.292C39.7112 11.776 38.0192 10.528 37.5632 9.772C37.1072 10.528 35.4152 11.776 33.9632 12.292L33.3752 11.548C34.6952 11.044 36.9872 9.568 36.9872 8.368V6.664H38.1392ZM42.4832 15.172H32.6432V14.224H42.4832V15.172ZM43.7778 6.988C43.7778 6.868 43.8498 6.796 43.9698 6.796H48.9498V7.72H44.9178V9.856H48.6498V10.756H44.9178V12.844C44.9178 12.964 45.0138 13.06 45.1338 13.06C45.8178 13.06 46.7538 13.048 47.4378 13.036C48.4938 13.012 49.6818 12.928 50.5818 12.676V6.244H51.7218V9.772H53.3418V10.708H51.7218V16.972H50.5818V13.468C49.6698 13.744 48.4818 13.936 47.4018 13.96C46.6458 13.972 45.6618 13.984 44.9058 13.984C44.1378 13.984 43.7778 13.624 43.7778 12.856V6.988ZM62.7124 11.764H61.5724V6.244H62.7124V11.764ZM62.7124 15.16H56.8804V16.084C56.8804 16.204 56.9764 16.3 57.0964 16.3H62.9524V17.212H56.8684C56.1004 17.212 55.7404 16.852 55.7404 16.084V14.248H61.5724V13.168H55.7404V12.244H62.5204C62.6404 12.244 62.7124 12.316 62.7124 12.436V15.16ZM56.9284 11.332C55.2484 11.332 54.0004 10.36 54.0004 8.764C54.0004 7.168 55.2484 6.196 56.9284 6.196C58.6084 6.196 59.8564 7.168 59.8564 8.764C59.8564 10.36 58.6084 11.332 56.9284 11.332ZM56.9284 7.12C55.8844 7.12 55.1164 7.732 55.1164 8.764C55.1164 9.796 55.8844 10.408 56.9284 10.408C57.9724 10.408 58.7404 9.796 58.7404 8.764C58.7404 7.732 57.9724 7.12 56.9284 7.12Z" fill="#5177BC"/>
<path d="M64 0H126.042L133 12L126.042 24H64L71 12L64 0Z" fill="#5177BC" fill-opacity="0.1"/>
<path d="M78.6083 15.052V16H73.1363V15.052C73.1363 14.728 73.2683 14.428 73.4603 14.224L74.9723 12.556C76.2803 11.056 77.2883 9.976 77.2883 8.992C77.2883 8.092 76.6763 7.624 75.5963 7.624C74.9123 7.624 74.1083 7.924 73.4723 8.284L73.1243 7.48C73.9403 6.964 74.8163 6.676 75.6443 6.676C77.3243 6.676 78.4283 7.468 78.4283 8.968C78.4283 10.396 77.3243 11.512 75.9083 13.132L74.3483 14.848V15.052H78.6083ZM80.1184 15.676C80.1184 15.16 80.4784 14.872 80.9224 14.872C81.3664 14.872 81.7264 15.16 81.7264 15.676C81.7264 16.192 81.3664 16.48 80.9224 16.48C80.4784 16.48 80.1184 16.192 80.1184 15.676ZM84.1973 6.676C84.1973 6.556 84.2693 6.484 84.3893 6.484H91.2293V7.408H85.3373V8.512H91.2293V9.412H85.3373V10.36C85.3373 10.48 85.4333 10.576 85.5533 10.576H91.3613V11.5H85.3253C84.5573 11.5 84.1973 11.14 84.1973 10.372V6.676ZM87.1373 16.972V13.528H82.8053V12.58H92.6453V13.528H88.2773V16.972H87.1373ZM99.2319 14.104C98.4759 13.72 96.9759 12.268 96.4959 11.392C96.0519 12.304 94.6479 13.708 93.7119 14.272L93.0279 13.552C94.4439 12.616 95.9199 11.188 95.9199 9.544V7.804H93.6399V6.856H99.3279V7.804H97.0599V9.544C97.0599 11.14 98.7039 12.676 99.7839 13.36L99.2319 14.104ZM103.504 10.828H101.884V16.972H100.744V6.244H101.884V9.892H103.504V10.828ZM112.755 16.972H111.615V6.244H112.755V16.972ZM109.095 6.868C109.395 6.868 109.527 7 109.527 7.3V8.26C109.527 11.284 107.043 13.192 104.763 14.26L104.283 13.468C106.646 12.34 108.387 10.744 108.387 8.464V7.816H104.547V6.868H109.095ZM119.977 7.516C120.061 8.752 122.209 9.688 123.505 10.072L122.977 10.816C121.525 10.468 119.917 9.448 119.401 8.728C118.885 9.448 117.277 10.468 115.825 10.816L115.297 10.072C116.593 9.688 118.741 8.752 118.813 7.516H115.813V6.568H122.989V7.516H119.977ZM119.077 14.812V12.568H114.481V11.62H124.321V12.568H120.217V14.812H119.077ZM116.941 13.684V15.796C116.941 15.916 117.037 16.012 117.157 16.012H123.241V16.96H116.929C116.161 16.96 115.801 16.6 115.801 15.832V13.684H116.941Z" fill="#5177BC"/>
<path d="M128 0H190.042L197 12L190.042 24H128L134.958 12L128 0Z" fill="#5177BC" fill-opacity="0.1"/>
<path d="M143.02 7.672L140.692 10.288C142.444 10.264 143.656 11.368 143.656 13.204C143.656 14.932 142.348 16.18 140.548 16.18C139.42 16.18 138.592 15.928 137.86 15.628L138.004 14.8C138.664 15.016 139.576 15.232 140.5 15.232C141.808 15.232 142.516 14.32 142.516 13.18C142.516 11.932 141.652 11.176 140.584 11.176C140.116 11.176 139.768 11.248 139.396 11.38L138.892 10.96L141.592 7.816H138.412V6.856H143.02V7.672ZM145.118 15.676C145.118 15.16 145.478 14.872 145.922 14.872C146.366 14.872 146.726 15.16 146.726 15.676C146.726 16.192 146.366 16.48 145.922 16.48C145.478 16.48 145.118 16.192 145.118 15.676ZM152.725 17.452C150.853 17.452 149.413 16.66 149.413 15.088C149.413 13.516 150.853 12.724 152.725 12.724C154.597 12.724 156.037 13.516 156.037 15.088C156.037 16.66 154.597 17.452 152.725 17.452ZM152.725 8.548C152.209 9.232 150.601 10.012 149.149 10.396L148.621 9.652C149.893 9.268 151.981 8.56 152.137 7.396H149.137V6.448H156.313V7.396H153.313C153.457 8.56 155.557 9.268 156.829 9.652L156.301 10.396C154.849 10.012 153.241 9.232 152.725 8.548ZM157.645 12.1H147.805V11.176H152.161V9.676H153.301V11.176H157.645V12.1ZM152.725 13.648C151.405 13.648 150.529 14.128 150.529 15.088C150.529 16.048 151.405 16.528 152.725 16.528C154.045 16.528 154.921 16.048 154.921 15.088C154.921 14.128 154.045 13.648 152.725 13.648ZM160.944 10.324C160.176 10.324 159.816 9.964 159.816 9.196V6.448H166.752V10.132C166.752 10.252 166.68 10.324 166.56 10.324H163.86V11.56H168.204V12.484H158.364V11.56H162.72V10.324H160.944ZM166.692 13.576C166.812 13.576 166.884 13.648 166.884 13.768V17.212H165.744V14.524H159.624V13.576H166.692ZM160.932 9.184C160.932 9.304 161.028 9.4 161.148 9.4H165.636V7.372H160.932V9.184ZM174.911 12.472C174.167 12.184 172.715 11.128 172.247 10.36C171.779 11.176 170.447 12.208 169.511 12.64L168.827 11.92C170.243 11.176 171.659 10.168 171.659 8.632V6.556H172.799V8.62C172.799 10.168 174.359 11.164 175.463 11.728L174.911 12.472ZM174.562 9.364V8.428H176.735V6.244H177.875V14.044H176.735V9.364H174.562ZM172.09 15.796C172.09 15.916 172.187 16.012 172.307 16.012H178.175V16.96H172.079C171.311 16.96 170.951 16.6 170.951 15.832V13.432H172.09V15.796ZM181.137 11.08C181.137 11.2 181.233 11.296 181.353 11.296C181.917 11.296 182.217 11.296 182.781 11.272C183.549 11.236 184.137 11.176 184.773 11.056L184.833 11.86C184.245 12.016 183.513 12.136 182.745 12.184C182.109 12.22 181.761 12.22 181.125 12.22C180.357 12.22 179.997 11.86 179.997 11.092V6.748C179.997 6.628 180.069 6.556 180.189 6.556H184.209V7.48H181.137V8.872H184.137V9.772H181.137V11.08ZM188.721 12.688H187.629V9.796H186.501V12.688H185.433V6.304H186.501V8.86H187.629V6.244H188.721V12.688ZM188.469 13.396C188.589 13.396 188.661 13.468 188.661 13.588V17.212H187.521V14.344H181.461V13.396H188.469Z" fill="#5177BC"/>
<path d="M192 0H257C259.209 0 261 1.79086 261 4V20C261 22.2091 259.209 24 257 24H192L199 12L192 0Z" fill="#6FBF37" fill-opacity="0.1"/>
<path d="M209.135 6.676C209.135 6.556 209.207 6.484 209.327 6.484H216.167V7.408H210.275V8.512H216.167V9.412H210.275V10.36C210.275 10.48 210.371 10.576 210.491 10.576H216.299V11.5H210.263C209.495 11.5 209.135 11.14 209.135 10.372V6.676ZM212.075 16.972V13.528H207.743V12.58H217.583V13.528H213.215V16.972H212.075ZM224.169 14.104C223.413 13.72 221.913 12.268 221.433 11.392C220.989 12.304 219.585 13.708 218.649 14.272L217.965 13.552C219.381 12.616 220.857 11.188 220.857 9.544V7.804H218.577V6.856H224.265V7.804H221.997V9.544C221.997 11.14 223.641 12.676 224.721 13.36L224.169 14.104ZM228.441 10.828H226.821V16.972H225.681V6.244H226.821V9.892H228.441V10.828ZM237.812 15.16H231.98V16.084C231.98 16.204 232.076 16.3 232.196 16.3H238.052V17.212H231.968C231.2 17.212 230.84 16.852 230.84 16.084V14.248H236.672V13.168H230.84V12.244H237.62C237.74 12.244 237.812 12.316 237.812 12.436V15.16ZM234.5 10.552V9.664H236.672V8.356H234.74V7.468H236.672V6.244H237.812V11.644H236.672V10.552H234.5ZM233.912 6.436C234.212 6.436 234.344 6.568 234.344 6.868V7.468C234.344 9.616 231.764 11.044 229.46 11.728L228.98 10.936C231.356 10.18 233.204 8.932 233.204 7.672V7.384H229.484V6.436H233.912ZM249.559 10.948H248.059V16.972H246.919V14.08C246.259 14.284 244.903 14.524 242.659 14.524H239.311V13.576H241.315V10.396H242.455V13.576H242.515C244.603 13.576 246.091 13.432 246.919 13.228V6.244H248.059V10.012H249.559V10.948ZM245.359 9.208C245.359 9.928 245.143 11.56 244.939 12.172L243.919 12.052C244.063 11.488 244.219 9.964 244.219 9.352V7.852H239.959V6.904H244.927C245.227 6.904 245.359 7.036 245.359 7.336V9.208Z" fill="#42701F"/>
</svg>
