<svg width="228" height="24" viewBox="0 0 228 24" fill="none" xmlns="http://www.w3.org/2000/svg">
<path d="M0 4C0 1.79086 1.79086 0 4 0L72 0L80 12L72 24H4C1.79086 24 0 22.2091 0 20V4Z" fill="#5177BC" fill-opacity="0.1"/>
<path d="M8.21702 15.04H10.245V8.068L8.56502 8.512L8.34902 7.84L10.629 6.856H11.397V15.04H13.305V16H8.21702V15.04ZM14.8391 15.676C14.8391 15.16 15.1991 14.872 15.6431 14.872C16.0871 14.872 16.4471 15.16 16.4471 15.676C16.4471 16.192 16.0871 16.48 15.6431 16.48C15.1991 16.48 14.8391 16.192 14.8391 15.676ZM18.918 6.676C18.918 6.556 18.99 6.484 19.11 6.484H25.95V7.408H20.058V8.512H25.95V9.412H20.058V10.36C20.058 10.48 20.154 10.576 20.274 10.576H26.082V11.5H20.046C19.278 11.5 18.918 11.14 18.918 10.372V6.676ZM21.858 16.972V13.528H17.526V12.58H27.366V13.528H22.998V16.972H21.858ZM33.9526 14.104C33.1966 13.72 31.6966 12.268 31.2166 11.392C30.7726 12.304 29.3686 13.708 28.4326 14.272L27.7486 13.552C29.1646 12.616 30.6406 11.188 30.6406 9.544V7.804H28.3606V6.856H34.0486V7.804H31.7806V9.544C31.7806 11.14 33.4246 12.676 34.5046 13.36L33.9526 14.104ZM38.2246 10.828H36.6046V16.972H35.4646V6.244H36.6046V9.892H38.2246V10.828ZM44.1392 6.664V8.368C44.1392 9.568 46.4312 11.044 47.7512 11.548L47.1632 12.292C45.7112 11.776 44.0192 10.528 43.5632 9.772C43.1072 10.528 41.4152 11.776 39.9632 12.292L39.3752 11.548C40.6952 11.044 42.9872 9.568 42.9872 8.368V6.664H44.1392ZM48.4832 15.172H38.6432V14.224H48.4832V15.172ZM49.7778 6.988C49.7778 6.868 49.8498 6.796 49.9698 6.796H54.9498V7.72H50.9178V9.856H54.6498V10.756H50.9178V12.844C50.9178 12.964 51.0138 13.06 51.1338 13.06C51.8178 13.06 52.7538 13.048 53.4378 13.036C54.4938 13.012 55.6818 12.928 56.5818 12.676V6.244H57.7218V9.772H59.3418V10.708H57.7218V16.972H56.5818V13.468C55.6698 13.744 54.4818 13.936 53.4018 13.96C52.6458 13.972 51.6618 13.984 50.9058 13.984C50.1378 13.984 49.7778 13.624 49.7778 12.856V6.988ZM68.7124 11.764H67.5724V6.244H68.7124V11.764ZM68.7124 15.16H62.8804V16.084C62.8804 16.204 62.9764 16.3 63.0964 16.3H68.9524V17.212H62.8684C62.1004 17.212 61.7404 16.852 61.7404 16.084V14.248H67.5724V13.168H61.7404V12.244H68.5204C68.6404 12.244 68.7124 12.316 68.7124 12.436V15.16ZM62.9284 11.332C61.2484 11.332 60.0004 10.36 60.0004 8.764C60.0004 7.168 61.2484 6.196 62.9284 6.196C64.6084 6.196 65.8564 7.168 65.8564 8.764C65.8564 10.36 64.6084 11.332 62.9284 11.332ZM62.9284 7.12C61.8844 7.12 61.1164 7.732 61.1164 8.764C61.1164 9.796 61.8844 10.408 62.9284 10.408C63.9724 10.408 64.7404 9.796 64.7404 8.764C64.7404 7.732 63.9724 7.12 62.9284 7.12Z" fill="#5177BC"/>
<path d="M74 0H145.933L154 12L145.933 24H74L82 12L74 0Z" fill="#5177BC" fill-opacity="0.1"/>
<path d="M90.329 15.052V16H84.857V15.052C84.857 14.728 84.989 14.428 85.181 14.224L86.693 12.556C88.001 11.056 89.009 9.976 89.009 8.992C89.009 8.092 88.397 7.624 87.317 7.624C86.633 7.624 85.829 7.924 85.193 8.284L84.845 7.48C85.661 6.964 86.537 6.676 87.365 6.676C89.045 6.676 90.149 7.468 90.149 8.968C90.149 10.396 89.045 11.512 87.629 13.132L86.069 14.848V15.052H90.329ZM91.8391 15.676C91.8391 15.16 92.1991 14.872 92.6431 14.872C93.0871 14.872 93.4471 15.16 93.4471 15.676C93.4471 16.192 93.0871 16.48 92.6431 16.48C92.1991 16.48 91.8391 16.192 91.8391 15.676ZM96.974 17.092C96.206 17.092 95.846 16.732 95.846 15.964V12.748H103.046V16.9C103.046 17.02 102.974 17.092 102.854 17.092H96.974ZM94.526 11.356V10.432H101.438C101.558 9.808 101.666 8.884 101.666 8.308V7.456H95.906V6.508H102.374C102.674 6.508 102.806 6.64 102.806 6.94V8.164C102.806 8.836 102.65 9.784 102.482 10.432H104.366V11.356H94.526ZM96.962 15.952C96.962 16.072 97.058 16.168 97.178 16.168H101.93V13.672H96.962V15.952ZM114.325 12.34H113.233V9.676H112.141V12.34H111.073V6.304H112.141V8.74H113.233V6.244H114.325V12.34ZM114.073 13.06C114.193 13.06 114.265 13.132 114.265 13.252V17.212H113.125V14.008H107.077V13.06H114.073ZM107.773 11.656C106.237 11.656 105.097 10.6 105.097 9.016C105.097 7.432 106.237 6.376 107.773 6.376C109.309 6.376 110.449 7.432 110.449 9.016C110.449 10.6 109.309 11.656 107.773 11.656ZM107.773 7.3C106.909 7.3 106.189 7.9 106.189 9.016C106.189 10.132 106.909 10.732 107.773 10.732C108.637 10.732 109.357 10.132 109.357 9.016C109.357 7.9 108.637 7.3 107.773 7.3ZM119.999 11.032V7.6H117.047V10.876C117.047 11.068 117.191 11.224 117.383 11.212L119.999 11.032ZM120.923 6.676C121.043 6.676 121.115 6.748 121.115 6.868V11.8L117.179 12.136C116.375 12.208 115.931 11.692 115.931 10.888V6.676H120.923ZM118.379 15.796C118.379 15.916 118.475 16.012 118.595 16.012H124.463V16.96H118.367C117.599 16.96 117.239 16.6 117.239 15.832V13.312H118.379V15.796ZM125.783 10.108H124.163V14.104H123.023V6.244H124.163V9.172H125.783V10.108ZM135.154 15.196H129.322V16.084C129.322 16.204 129.418 16.3 129.538 16.3H135.394V17.212H129.31C128.542 17.212 128.182 16.852 128.182 16.084V14.284H134.014V13.24H128.182V12.316H134.962C135.082 12.316 135.154 12.388 135.154 12.508V15.196ZM132.19 11.572C131.446 11.284 129.994 10.228 129.526 9.46C129.058 10.276 127.726 11.308 126.79 11.74L126.106 11.02C127.522 10.276 128.938 9.268 128.938 7.732V6.316H130.078V7.72C130.078 9.268 131.638 10.264 132.742 10.828L132.19 11.572ZM131.842 8.944V8.008H134.014V6.244H135.154V11.656H134.014V8.944H131.842ZM142.568 17.452C140.696 17.452 139.376 16.468 139.376 14.932C139.376 13.396 140.696 12.412 142.568 12.412C144.44 12.412 145.76 13.396 145.76 14.932C145.76 16.468 144.44 17.452 142.568 17.452ZM142.832 11.872C142.088 11.584 140.636 10.528 140.168 9.76C139.7 10.576 138.368 11.728 137.432 12.16L136.748 11.44C138.164 10.696 139.58 9.568 139.58 8.032V7.504H137.336V6.556H142.916V7.504H140.72V8.02C140.72 9.568 142.28 10.564 143.384 11.128L142.832 11.872ZM142.568 13.336C141.284 13.336 140.492 13.936 140.492 14.932C140.492 15.928 141.284 16.528 142.568 16.528C143.852 16.528 144.644 15.928 144.644 14.932C144.644 13.936 143.852 13.336 142.568 13.336ZM142.64 9.46V8.524H144.692V6.244H145.832V12.4H144.692V9.46H142.64Z" fill="#5177BC"/>
<path d="M148 0H224C226.209 0 228 1.79086 228 4V20C228 22.2091 226.209 24 224 24H148L156 12L148 0Z" fill="#6FBF37" fill-opacity="0.1"/>
<path d="M171.135 6.676C171.135 6.556 171.207 6.484 171.327 6.484H178.167V7.408H172.275V8.512H178.167V9.412H172.275V10.36C172.275 10.48 172.371 10.576 172.491 10.576H178.299V11.5H172.263C171.495 11.5 171.135 11.14 171.135 10.372V6.676ZM174.075 16.972V13.528H169.743V12.58H179.583V13.528H175.215V16.972H174.075ZM186.169 14.104C185.413 13.72 183.913 12.268 183.433 11.392C182.989 12.304 181.585 13.708 180.649 14.272L179.965 13.552C181.381 12.616 182.857 11.188 182.857 9.544V7.804H180.577V6.856H186.265V7.804H183.997V9.544C183.997 11.14 185.641 12.676 186.721 13.36L186.169 14.104ZM190.441 10.828H188.821V16.972H187.681V6.244H188.821V9.892H190.441V10.828ZM199.812 15.16H193.98V16.084C193.98 16.204 194.076 16.3 194.196 16.3H200.052V17.212H193.968C193.2 17.212 192.84 16.852 192.84 16.084V14.248H198.672V13.168H192.84V12.244H199.62C199.74 12.244 199.812 12.316 199.812 12.436V15.16ZM196.5 10.552V9.664H198.672V8.356H196.74V7.468H198.672V6.244H199.812V11.644H198.672V10.552H196.5ZM195.912 6.436C196.212 6.436 196.344 6.568 196.344 6.868V7.468C196.344 9.616 193.764 11.044 191.46 11.728L190.98 10.936C193.356 10.18 195.204 8.932 195.204 7.672V7.384H191.484V6.436H195.912ZM211.559 10.948H210.059V16.972H208.919V14.08C208.259 14.284 206.903 14.524 204.659 14.524H201.311V13.576H203.315V10.396H204.455V13.576H204.515C206.603 13.576 208.091 13.432 208.919 13.228V6.244H210.059V10.012H211.559V10.948ZM207.359 9.208C207.359 9.928 207.143 11.56 206.939 12.172L205.919 12.052C206.063 11.488 206.219 9.964 206.219 9.352V7.852H201.959V6.904H206.927C207.227 6.904 207.359 7.036 207.359 7.336V9.208Z" fill="#42701F"/>
</svg>
