<svg xmlns="http://www.w3.org/2000/svg" width="24" height="24" viewBox="0 0 24 24" fill="none">
<path fill-rule="evenodd" clip-rule="evenodd" d="M12.0007 12.5088L16.4926 17.0019L17 16.4944L12.5081 12.0014L16.9994 7.50888L16.4921 7.0014L12.0007 11.4939L7.50791 7L7.00056 7.50748L11.4933 12.0014L7 16.4958L7.50735 17.0033L12.0007 12.5088Z" fill="#666666"/>
<path d="M16.4926 17.0019L16.2805 17.214L16.4926 17.4262L16.7048 17.214L16.4926 17.0019ZM12.0007 12.5088L12.2129 12.2967L12.0007 12.0845L11.7885 12.2967L12.0007 12.5088ZM17 16.4944L17.2122 16.7065L17.4242 16.4944L17.2122 16.2823L17 16.4944ZM12.5081 12.0014L12.2959 11.7892L12.0838 12.0014L12.2959 12.2135L12.5081 12.0014ZM16.9994 7.50888L17.2116 7.72098L17.4237 7.50888L17.2116 7.29677L16.9994 7.50888ZM16.4921 7.0014L16.7042 6.7893L16.4921 6.57709L16.2799 6.7893L16.4921 7.0014ZM12.0007 11.4939L11.7885 11.706L12.0007 11.9182L12.2129 11.706L12.0007 11.4939ZM7.50791 7L7.72007 6.78789L7.50791 6.57568L7.29575 6.78789L7.50791 7ZM7.00056 7.50748L6.7884 7.29537L6.57634 7.50748L6.7884 7.71958L7.00056 7.50748ZM11.4933 12.0014L11.7055 12.2135L11.9176 12.0014L11.7055 11.7892L11.4933 12.0014ZM7 16.4958L6.78784 16.2837L6.57579 16.4958L6.78784 16.7079L7 16.4958ZM7.50735 17.0033L7.2952 17.2154L7.50735 17.4276L7.71951 17.2154L7.50735 17.0033ZM16.7048 16.7897L12.2129 12.2967L11.7885 12.7209L16.2805 17.214L16.7048 16.7897ZM16.7878 16.2823L16.2805 16.7897L16.7048 17.214L17.2122 16.7065L16.7878 16.2823ZM12.2959 12.2135L16.7878 16.7065L17.2122 16.2823L12.7202 11.7892L12.2959 12.2135ZM16.7873 7.29677L12.2959 11.7892L12.7202 12.2135L17.2116 7.72098L16.7873 7.29677ZM16.2799 7.21351L16.7873 7.72098L17.2116 7.29677L16.7042 6.7893L16.2799 7.21351ZM12.2129 11.706L16.7042 7.21351L16.2799 6.7893L11.7885 11.2818L12.2129 11.706ZM7.29575 7.21211L11.7885 11.706L12.2129 11.2818L7.72007 6.78789L7.29575 7.21211ZM7.21271 7.71958L7.72007 7.21211L7.29575 6.78789L6.7884 7.29537L7.21271 7.71958ZM11.7055 11.7892L7.21271 7.29537L6.7884 7.71958L11.2812 12.2135L11.7055 11.7892ZM7.21216 16.7079L11.7055 12.2135L11.2812 11.7892L6.78784 16.2837L7.21216 16.7079ZM7.71951 16.7911L7.21216 16.2837L6.78784 16.7079L7.2952 17.2154L7.71951 16.7911ZM11.7885 12.2967L7.2952 16.7911L7.71951 17.2154L12.2129 12.7209L11.7885 12.2967Z" fill="#666666"/>
</svg>