<svg xmlns="http://www.w3.org/2000/svg" width="20" height="20" viewBox="0 0 20 20" fill="none">
<path fill-rule="evenodd" clip-rule="evenodd" d="M10.6805 9.97384L15.838 4.81465L15.131 4.10742L9.97349 9.26661L4.81604 4.10746L4.10905 4.81468L9.2665 9.97384L4.1084 15.1336L4.81539 15.8409L9.97349 10.6811L15.1316 15.8409L15.8386 15.1337L10.6805 9.97384Z" fill="#888888"/>
<path d="M15.838 4.81465L15.944 4.92069L16.0501 4.81465L15.944 4.7086L15.838 4.81465ZM10.6805 9.97384L10.5744 9.86779L10.4684 9.97384L10.5744 10.0799L10.6805 9.97384ZM15.131 4.10742L15.2371 4.00137L15.131 3.89525L15.0249 4.00137L15.131 4.10742ZM9.97349 9.26661L9.8674 9.37266L9.97349 9.47878L10.0796 9.37266L9.97349 9.26661ZM4.81604 4.10746L4.92212 4.00141L4.81604 3.89529L4.70995 4.00141L4.81604 4.10746ZM4.10905 4.81468L4.00296 4.70863L3.89695 4.81468L4.00296 4.92073L4.10905 4.81468ZM9.2665 9.97384L9.37258 10.0799L9.47859 9.97384L9.37258 9.86779L9.2665 9.97384ZM4.1084 15.1336L4.00231 15.0276L3.8963 15.1336L4.00231 15.2397L4.1084 15.1336ZM4.81539 15.8409L4.7093 15.9469L4.81539 16.053L4.92147 15.9469L4.81539 15.8409ZM9.97349 10.6811L10.0796 10.575L9.97349 10.4689L9.8674 10.575L9.97349 10.6811ZM15.1316 15.8409L15.0255 15.9469L15.1316 16.0531L15.2377 15.9469L15.1316 15.8409ZM15.8386 15.1337L15.9447 15.2397L16.0507 15.1337L15.9447 15.0276L15.8386 15.1337ZM15.7319 4.7086L10.5744 9.86779L10.7866 10.0799L15.944 4.92069L15.7319 4.7086ZM15.0249 4.21347L15.7319 4.92069L15.944 4.7086L15.2371 4.00137L15.0249 4.21347ZM10.0796 9.37266L15.2371 4.21347L15.0249 4.00137L9.8674 9.16056L10.0796 9.37266ZM4.70995 4.21351L9.8674 9.37266L10.0796 9.16056L4.92212 4.00141L4.70995 4.21351ZM4.21513 4.92073L4.92212 4.21351L4.70995 4.00141L4.00296 4.70863L4.21513 4.92073ZM9.37258 9.86779L4.21513 4.70863L4.00296 4.92073L9.16041 10.0799L9.37258 9.86779ZM4.21448 15.2397L9.37258 10.0799L9.16041 9.86779L4.00231 15.0276L4.21448 15.2397ZM4.92147 15.7348L4.21448 15.0276L4.00231 15.2397L4.7093 15.9469L4.92147 15.7348ZM9.8674 10.575L4.7093 15.7348L4.92147 15.9469L10.0796 10.7871L9.8674 10.575ZM15.2377 15.7349L10.0796 10.575L9.8674 10.7871L15.0255 15.9469L15.2377 15.7349ZM15.7325 15.0276L15.0255 15.7349L15.2377 15.9469L15.9447 15.2397L15.7325 15.0276ZM10.5744 10.0799L15.7325 15.2397L15.9447 15.0276L10.7866 9.86779L10.5744 10.0799Z" fill="#888888"/>
</svg>