<svg xmlns="http://www.w3.org/2000/svg" width="18" height="18" viewBox="0 0 18 18" fill="none">
<path d="M6.90088 6.92923H3.78711V3.78711" stroke="#444444" stroke-width="1.18125"/>
<path d="M4.17692 6.88828C5.25816 4.8211 6.96546 3.78711 9.29961 3.78711C10.3899 3.78711 11.4557 4.11041 12.3622 4.71613C13.2687 5.32185 13.9753 6.18279 14.3925 7.19007C14.8097 8.19735 14.9189 9.30573 14.7062 10.375C14.4935 11.4444 13.9685 12.4266 13.1975 13.1975C12.4266 13.9685 11.4444 14.4935 10.375 14.7062C9.30573 14.9189 8.19735 14.8097 7.19007 14.3925C6.18279 13.9753 5.32185 13.2687 4.71613 12.3622C4.11041 11.4557 3.78711 10.3899 3.78711 9.29961" stroke="#444444" stroke-width="1.18125"/>
</svg>