<svg xmlns="http://www.w3.org/2000/svg" width="31" height="23" viewBox="0 0 31 23" fill="none">
<path d="M38.0455 -11.5H-7.04541V34.5015H38.0455V-11.5Z" fill="white"/>
<path d="M10.3522 7.99219C9.40273 9.44624 9.78714 11.4093 11.2124 12.3791C12.6377 13.3477 14.5619 12.9555 15.5125 11.5015C16.4619 10.0474 18.3872 9.65524 19.8125 10.6239C21.2378 11.5925 21.6221 13.5567 20.6727 15.0107C18.7727 17.9177 14.9232 18.7032 12.0737 16.7648C9.22431 14.8264 8.45439 10.8992 10.3544 7.99219H10.3522Z" fill="#1042A3"/>
<path d="M20.6593 15.0101C21.6088 13.5561 21.2244 11.593 19.7991 10.6233C18.3738 9.65466 16.4496 10.0468 15.4991 11.5009C14.5496 12.9549 12.6243 13.3471 11.199 12.3785C9.77375 11.4099 9.38934 9.44566 10.3388 7.99161C12.2388 5.08463 16.0883 4.29917 18.9378 6.2364C21.7872 8.17476 22.5571 12.102 20.6571 15.009L20.6593 15.0101Z" fill="#F62323"/>
<path d="M24.3863 17.8613L22.8101 20.2734L23.6697 20.8581L25.246 18.4459L24.3863 17.8613Z" fill="#1D1D1B"/>
<path d="M26.2526 15.0087L24.6763 17.4209L25.5359 18.0056L27.1122 15.5934L26.2526 15.0087Z" fill="#1D1D1B"/>
<path d="M25.6735 18.7392L24.0972 21.1514L24.9568 21.736L26.5331 19.3238L25.6735 18.7392Z" fill="#1D1D1B"/>
<path d="M27.5509 15.8886L25.9746 18.3008L26.8342 18.8854L28.4106 16.4732L27.5509 15.8886Z" fill="#1D1D1B"/>
<path d="M23.0934 16.9853L21.5171 19.3975L22.3767 19.9821L23.953 17.5699L23.0934 16.9853Z" fill="#1D1D1B"/>
<path d="M24.9596 14.1337L23.3833 16.5459L24.2429 17.1306L25.8192 14.7184L24.9596 14.1337Z" fill="#1D1D1B"/>
<path d="M6.03738 14.1331L5.17773 14.7178L8.61749 19.9816L9.47714 19.3969L6.03738 14.1331Z" fill="#1D1D1B"/>
<path d="M3.45728 15.886L2.59766 16.4707L6.03742 21.7345L6.89704 21.1499L3.45728 15.886Z" fill="#1D1D1B"/>
<path d="M6.61648 17.8616L5.75684 18.4463L7.33314 20.8585L8.19279 20.2738L6.61648 17.8616Z" fill="#1D1D1B"/>
<path d="M4.75025 15.0091L3.89062 15.5938L5.46693 18.006L6.32655 17.4213L4.75025 15.0091Z" fill="#1D1D1B"/>
<path d="M23.6751 2.14386L22.8154 2.72852L26.2552 7.99237L27.1148 7.40771L23.6751 2.14386Z" fill="#1D1D1B"/>
<path d="M26.8396 4.11943L25.98 4.7041L27.5563 7.11631L28.4159 6.53164L26.8396 4.11943Z" fill="#1D1D1B"/>
<path d="M24.9622 1.26691L24.1025 1.85156L25.6788 4.26377L26.5385 3.67911L24.9622 1.26691Z" fill="#1D1D1B"/>
<path d="M24.2483 5.87433L23.3887 6.45898L24.965 8.8712L25.8246 8.28654L24.2483 5.87433Z" fill="#1D1D1B"/>
<path d="M22.3821 3.01984L21.5225 3.60449L23.0988 6.0167L23.9584 5.43205L22.3821 3.01984Z" fill="#1D1D1B"/>
<path d="M8.6175 3.01838L5.17773 8.28223L6.03737 8.86689L9.47714 3.60304L8.6175 3.01838Z" fill="#1D1D1B"/>
<path d="M7.33039 2.14045L3.89062 7.4043L4.75026 7.98896L8.19003 2.72511L7.33039 2.14045Z" fill="#1D1D1B"/>
<path d="M6.03742 1.26447L2.59766 6.52832L3.45729 7.11298L6.89706 1.84913L6.03742 1.26447Z" fill="#1D1D1B"/>
</svg>