<svg xmlns="http://www.w3.org/2000/svg" width="18" height="19" viewBox="0 0 18 19" fill="none">
<path d="M6.90137 7.42923H3.7876V4.28711" stroke="#444444" stroke-width="1.18125"/>
<path d="M4.17741 7.38828C5.25865 5.3211 6.96595 4.28711 9.3001 4.28711C10.3904 4.28711 11.4562 4.61041 12.3627 5.21613C13.2692 5.82185 13.9758 6.68279 14.393 7.69007C14.8102 8.69735 14.9194 9.80573 14.7067 10.875C14.494 11.9444 13.969 12.9266 13.198 13.6975C12.4271 14.4685 11.4449 14.9935 10.3755 15.2062C9.30621 15.4189 8.19783 15.3097 7.19056 14.8925C6.18328 14.4753 5.32234 13.7687 4.71662 12.8622C4.1109 11.9557 3.7876 10.8899 3.7876 9.79961" stroke="#444444" stroke-width="1.18125"/>
</svg>