<svg width="18" height="17" viewBox="0 0 18 17" fill="none" xmlns="http://www.w3.org/2000/svg">
  <path opacity="0.3" d="M8.84714 1.0328C9.03405 0.674423 9.54688 0.674421 9.73379 1.0328L11.6557 4.71779C11.8715 5.13149 12.2675 5.42122 12.7271 5.50167L16.8038 6.21523C17.1981 6.28424 17.3555 6.7655 17.0782 7.05415L14.181 10.0697C13.8614 10.4023 13.7127 10.8634 13.7776 11.32L14.3677 15.4707C14.4243 15.8694 14.0105 16.1681 13.6499 15.9887L9.9585 14.1526C9.53773 13.9433 9.0432 13.9433 8.62243 14.1526L4.93098 15.9887C4.57042 16.1681 4.1566 15.8694 4.21328 15.4707L4.80334 11.32C4.86825 10.8634 4.71949 10.4023 4.39994 10.0697L1.50276 7.05415C1.22544 6.7655 1.38283 6.28424 1.77711 6.21523L5.85385 5.50167C6.31345 5.42122 6.70944 5.13149 6.92521 4.71779L8.84714 1.0328Z" stroke="black"/>
</svg>
