<svg width="280" height="65" viewBox="0 0 280 65" fill="none" xmlns="http://www.w3.org/2000/svg">
<rect y="0.5" width="280" height="64" rx="8" fill="#F8F8F8"/>
<path d="M110.291 19.596C108.815 19.596 107.579 18.828 107.579 17.376C107.579 15.924 108.815 15.156 110.291 15.156C111.767 15.156 113.003 15.924 113.003 17.376C113.003 18.828 111.767 19.596 110.291 19.596ZM113.483 18.72V17.832H114.935V16.08H113.483V15.192H114.935V12.744H116.075V20.844H114.935V18.72H113.483ZM110.291 22.296C110.291 22.416 110.387 22.512 110.507 22.512H116.375V23.46H110.279C109.511 23.46 109.151 23.1 109.151 22.332V20.412H110.291V22.296ZM109.727 13.716V12.42H110.867V13.716H113.495V14.616H107.051V13.716H109.727ZM110.291 16.056C109.367 16.056 108.695 16.524 108.695 17.376C108.695 18.228 109.367 18.696 110.291 18.696C111.215 18.696 111.887 18.228 111.887 17.376C111.887 16.524 111.215 16.056 110.291 16.056ZM126.801 23.472H125.709V17.256H124.617V23.148H123.549V12.804H124.617V16.32H125.709V12.744H126.801V23.472ZM117.837 14.364V13.416H122.805V14.364H120.897V15.984C120.897 17.604 122.061 19.02 123.141 19.848L122.529 20.544C121.761 20.04 120.753 18.756 120.333 17.916C119.961 18.792 118.893 20.052 117.921 20.724L117.285 19.992C118.701 18.936 119.757 17.604 119.757 15.984V14.364H117.837ZM135.839 23.472V19.728H131.483V18.78H141.323V19.728H136.979V23.472H135.839ZM136.979 12.804V13.992C136.979 15.192 139.271 16.308 140.591 16.728L140.063 17.472C138.611 17.064 136.895 15.984 136.403 15.312C135.911 15.984 134.195 17.064 132.743 17.472L132.215 16.728C133.535 16.308 135.827 15.192 135.827 13.992V12.804H136.979ZM147.85 23.952C145.978 23.952 144.658 22.968 144.658 21.432C144.658 19.896 145.978 18.912 147.85 18.912C149.722 18.912 151.042 19.896 151.042 21.432C151.042 22.968 149.722 23.952 147.85 23.952ZM148.114 18.372C147.37 18.084 145.918 17.028 145.45 16.26C144.982 17.076 143.65 18.228 142.714 18.66L142.03 17.94C143.446 17.196 144.862 16.068 144.862 14.532V14.004H142.618V13.056H148.198V14.004H146.002V14.52C146.002 16.068 147.562 17.064 148.666 17.628L148.114 18.372ZM147.85 19.836C146.566 19.836 145.774 20.436 145.774 21.432C145.774 22.428 146.566 23.028 147.85 23.028C149.134 23.028 149.926 22.428 149.926 21.432C149.926 20.436 149.134 19.836 147.85 19.836ZM147.922 15.96V15.024H149.974V12.744H151.114V18.9H149.974V15.96H147.922ZM153.872 13.992V13.044H161.168V13.992H158.096V14.292C158.096 15.492 160.388 16.488 161.708 16.908L161.18 17.652C159.728 17.244 158.012 16.284 157.52 15.612C157.028 16.284 155.312 17.244 153.86 17.652L153.332 16.908C154.652 16.488 156.944 15.492 156.944 14.292V13.992H153.872ZM156.956 23.472V19.728H152.6V18.78H162.44V19.728H158.096V23.472H156.956ZM173.179 17.436H171.559V23.472H170.419V12.744H171.559V16.488H173.179V17.436ZM168.091 13.368C168.391 13.368 168.523 13.5 168.523 13.8V14.76C168.523 17.784 166.039 19.692 163.759 20.76L163.279 19.968C165.643 18.84 167.383 17.244 167.383 14.964V14.316H163.543V13.368H168.091Z" fill="#666666"/>
<path d="M173.5 31.5H106.5V33.5H173.5V31.5Z" fill="#CCCCCC" mask="url(#path-2-inside-1_3292_86229)"/>
<path d="M113.282 49.18C113.282 49.408 113.414 49.54 113.642 49.54H117.626V50.5H113.186C112.526 50.5 112.13 50.104 112.13 49.444V41.356H117.506V42.316H113.282V45.232H117.266V46.168H113.282V49.18ZM120.103 45.856C120.571 45.94 121.255 46.024 121.795 46.024C122.911 46.024 123.763 45.376 123.763 44.08C123.763 42.784 122.935 42.136 121.795 42.136C121.255 42.136 120.571 42.268 120.103 42.376V45.856ZM120.103 50.5H118.951V41.62C119.887 41.416 120.979 41.176 121.915 41.176C123.727 41.176 124.915 42.316 124.915 44.08C124.915 45.844 123.715 46.984 121.915 46.984C121.375 46.984 120.679 46.912 120.103 46.828V50.5ZM125.964 49.288C126.636 49.48 127.752 49.72 128.484 49.72C129.948 49.72 130.332 49.084 130.332 48.256C130.332 47.14 129.24 46.54 128.436 46.12C127.296 45.52 126.096 44.86 126.096 43.504C126.096 42.004 127.164 41.176 128.892 41.176C129.804 41.176 130.476 41.38 131.148 41.596L130.908 42.412C130.296 42.268 129.828 42.136 128.94 42.136C127.872 42.136 127.248 42.676 127.248 43.48C127.248 44.452 128.256 44.86 128.904 45.22C130.188 45.94 131.484 46.6 131.484 48.232C131.484 49.804 130.56 50.68 128.46 50.68C127.752 50.68 126.396 50.38 125.82 50.164L125.964 49.288ZM132.02 51.352H137.18V52.3H132.02V51.352ZM138.352 49.54H140.38V42.568L138.7 43.012L138.484 42.34L140.764 41.356H141.532V49.54H143.44V50.5H138.352V49.54ZM150.542 49.552V50.5H145.07V49.552C145.07 49.228 145.202 48.928 145.394 48.724L146.906 47.056C148.214 45.556 149.222 44.476 149.222 43.492C149.222 42.592 148.61 42.124 147.53 42.124C146.846 42.124 146.042 42.424 145.406 42.784L145.058 41.98C145.874 41.464 146.75 41.176 147.578 41.176C149.258 41.176 150.362 41.968 150.362 43.468C150.362 44.896 149.258 46.012 147.842 47.632L146.282 49.348V49.552H150.542ZM156.312 49.576L153.792 43.36L153.312 50.5H152.232L152.832 41.356H154.02L156.816 48.46L159.612 41.356H160.812L161.412 50.5H160.32L159.84 43.36L157.32 49.576H156.312ZM163.213 41.356H168.349V42.316H164.365V45.196H168.109V46.132H164.365V50.5H163.213V41.356Z" fill="#666666"/>
</svg>
